<svg width="685" height="1031" viewBox="0 0 685 1031" fill="none" xmlns="http://www.w3.org/2000/svg">
<rect width="685" height="1030" transform="translate(0 0.466766)" fill="#0A0A0A"/>
<path d="M210.672 467.574C210.672 465.596 209.468 464.521 207.06 464.349H197.901C197.213 464.349 196.869 464.134 196.869 463.704C197.385 461.21 198.288 459.232 199.578 457.77C200.868 456.222 201.943 455.362 202.803 455.19C205.211 454.846 209.167 454.674 214.671 454.674C220.175 454.674 223.615 454.717 224.991 454.803C226.367 454.803 227.227 454.932 227.571 455.19C227.915 455.62 228.087 456.136 228.087 456.738C228.087 457.254 227.915 460.823 227.571 467.445C227.313 473.981 227.184 479.872 227.184 485.118C227.184 490.278 227.356 493.546 227.7 494.922C228.044 496.212 228.216 497.029 228.216 497.373C228.216 498.749 227.012 500.254 224.604 501.888C222.196 503.436 218.541 504.812 213.639 506.016C208.823 507.22 203.491 507.822 197.643 507.822C189.817 507.822 183.023 505.113 177.261 499.695C172.789 495.395 169.693 490.708 167.973 485.634C166.339 480.56 165.522 473.422 165.522 464.22C165.522 430.078 178.035 413.007 203.061 413.007C207.275 413.007 211.059 413.48 214.413 414.426C217.767 415.286 220.691 417.049 223.185 419.715C225.765 422.295 227.055 425.649 227.055 429.777C227.055 431.927 226.625 434.12 225.765 436.356C224.217 440.914 220.777 443.193 215.445 443.193C212.521 443.193 210.285 442.462 208.737 441C207.275 439.452 206.544 437.345 206.544 434.679C206.544 433.647 207.103 433.002 208.221 432.744C209.855 431.798 210.672 430.207 210.672 427.971C210.672 425.649 209.812 423.886 208.092 422.682C206.372 421.392 204.566 420.747 202.674 420.747C198.546 420.747 195.063 422.252 192.225 425.262C189.387 428.186 187.323 432.056 186.033 436.872C183.883 445.472 182.808 454.244 182.808 463.188C182.808 477.808 186.377 487.526 193.515 492.342C196.181 494.234 198.976 495.18 201.9 495.18C207.318 495.18 210.199 494.191 210.543 492.213C210.801 489.547 210.93 485.419 210.93 479.829L210.672 467.574ZM255.836 448.353C255.836 475.013 256.438 492.471 257.642 500.727C257.642 502.791 255.664 504.468 251.708 505.758C247.752 507.134 244.484 507.822 241.904 507.822C239.324 507.822 238.034 507.435 238.034 506.661C238.034 506.145 238.163 505.5 238.421 504.726C240.055 501.114 240.872 486.58 240.872 461.124C240.872 437.044 239.84 423.671 237.776 421.005L237.26 420.231C236.744 419.801 236.486 419.285 236.486 418.683C236.486 417.995 236.959 417.436 237.905 417.006C239.195 416.232 241.474 415.458 244.742 414.684C248.096 413.91 251.106 413.523 253.772 413.523C256.438 413.523 257.771 414.125 257.771 415.329V415.716C256.739 424.66 256.094 435.539 255.836 448.353ZM276.878 413.652L295.454 414.684C303.71 414.684 309.644 413.695 313.256 411.717C313.772 411.373 314.202 411.201 314.546 411.201C314.976 411.201 315.191 411.803 315.191 413.007C315.191 414.211 314.46 416.189 312.998 418.941C310.848 423.155 307.752 425.262 303.71 425.262L296.615 425.133C295.927 425.133 295.497 425.52 295.325 426.294C294.723 438.936 294.422 452.61 294.422 467.316C294.422 481.936 295.024 492.944 296.228 500.34V500.985C296.228 503.135 294.164 504.855 290.036 506.145C285.994 507.435 282.167 508.08 278.555 508.08C276.835 508.08 275.975 507.607 275.975 506.661C275.975 506.403 276.104 505.801 276.362 504.855C277.308 502.963 278.125 493.804 278.813 477.378C279.587 460.952 279.974 448.568 279.974 440.226L279.716 426.165C279.716 425.649 279.458 425.348 278.942 425.262C277.136 424.918 275.072 424.746 272.75 424.746C268.106 424.746 264.666 425.692 262.43 427.584C261.828 428.014 261.269 428.229 260.753 428.229C260.151 428.229 259.85 427.885 259.85 427.197C259.85 426.165 260.409 424.746 261.527 422.94C262.559 421.134 263.677 419.586 264.881 418.296C267.805 415.2 271.804 413.652 276.878 413.652ZM340.012 448.353V450.159H362.845V449.901C362.931 447.837 362.974 445.257 362.974 442.161C362.974 438.979 362.931 436.227 362.845 433.905C362.759 431.497 362.673 429.476 362.587 427.842C362.501 426.208 362.372 424.789 362.2 423.585C362.114 422.381 362.028 421.478 361.942 420.876C361.856 420.188 361.813 419.586 361.813 419.07C361.813 418.554 362.286 417.952 363.232 417.264C367.36 414.512 371.961 413.136 377.035 413.136C380.217 413.136 381.808 413.695 381.808 414.813C381.808 414.899 381.722 415.372 381.55 416.232C379.916 424.402 378.884 435.711 378.454 450.159C378.196 464.607 378.067 472.347 378.067 473.379C378.067 486.709 378.841 495.954 380.389 501.114C380.647 501.802 380.776 502.404 380.776 502.92C380.776 503.35 380.432 503.866 379.744 504.468C376.562 506.532 372.434 507.564 367.36 507.564C364.092 507.564 362.243 506.446 361.813 504.21C361.555 503.006 361.426 501.157 361.426 498.663C361.426 496.083 361.555 492.17 361.813 486.924C362.157 481.678 362.415 472.519 362.587 459.447H340.012C340.012 479.055 340.614 492.815 341.818 500.727C341.818 502.791 339.84 504.468 335.884 505.758C331.928 507.134 328.66 507.822 326.08 507.822C323.5 507.822 322.21 507.435 322.21 506.661C322.21 506.145 322.339 505.5 322.597 504.726C324.231 501.114 325.048 486.58 325.048 461.124V459.447H317.437C316.749 459.447 316.405 459.189 316.405 458.673C316.405 458.501 316.577 457.856 316.921 456.738C317.265 455.534 318.039 454.158 319.243 452.61C320.533 451.062 321.952 450.288 323.5 450.288H324.919C324.919 433.346 323.93 423.585 321.952 421.005L321.436 420.231C320.92 419.801 320.662 419.285 320.662 418.683C320.662 417.995 321.135 417.436 322.081 417.006C323.371 416.232 325.65 415.458 328.918 414.684C332.272 413.91 335.282 413.523 337.948 413.523C340.614 413.523 341.947 414.125 341.947 415.329V415.716C340.915 424.66 340.27 435.539 340.012 448.353ZM391.848 483.054L392.751 446.805C392.751 441.215 392.622 436.614 392.364 433.002C391.934 426.552 391.203 422.51 390.171 420.876L389.655 420.102C389.225 419.758 389.01 419.328 389.01 418.812C389.01 417.178 391.16 415.888 395.46 414.942C399.76 413.91 403.372 413.394 406.296 413.394C409.22 413.394 410.682 414.211 410.682 415.845L410.553 417.264C409.349 425.778 408.618 435.883 408.36 447.579C408.102 459.189 407.973 466.8 407.973 470.412C407.973 474.024 408.102 477.034 408.36 479.442C408.618 481.85 408.747 483.269 408.747 483.699C408.833 484.043 409.048 484.774 409.392 485.892C409.822 486.924 410.338 487.87 410.94 488.73C412.488 490.794 414.681 491.826 417.519 491.826C420.357 491.826 422.722 491.181 424.614 489.891C426.592 488.601 428.054 487.01 429 485.118C430.978 481.076 432.182 477.593 432.612 474.669L432.87 472.734C433.3 466.628 433.515 459.404 433.515 451.062C433.515 442.72 433.472 437.259 433.386 434.679C433.3 432.099 433.171 429.992 432.999 428.358C432.827 426.638 432.655 425.133 432.483 423.843C432.397 422.553 432.311 421.564 432.225 420.876C432.139 420.102 432.096 419.672 432.096 419.586C432.096 418.64 432.569 417.866 433.515 417.264C434.977 416.146 437.213 415.2 440.223 414.426C443.319 413.652 446.071 413.265 448.479 413.265C450.887 413.265 452.091 413.824 452.091 414.942C452.091 415.114 451.876 416.533 451.446 419.199C449.554 430.895 448.608 447.149 448.608 467.961C448.608 483.355 449.64 494.32 451.704 500.856C452.048 501.888 452.22 502.619 452.22 503.049C452.22 503.393 451.876 503.866 451.188 504.468C448.608 506.446 445.168 507.435 440.868 507.435C436.654 507.435 434.375 506.36 434.031 504.21C433.601 503.092 433.343 500.856 433.257 497.502L433.128 495.954C433.128 495.18 432.956 494.793 432.612 494.793L431.193 495.696C429.559 498.448 427.667 500.77 425.517 502.662C423.367 504.468 421.303 505.715 419.325 506.403C416.487 507.435 413.692 507.951 410.94 507.951C408.274 507.951 405.565 507.22 402.813 505.758C400.147 504.382 398.126 502.748 396.75 500.856C395.46 498.964 394.385 496.728 393.525 494.148C392.407 490.45 391.848 486.752 391.848 483.054ZM478.523 447.45L478.652 463.575L478.136 485.892C478.222 486.236 478.351 486.408 478.523 486.408C478.695 486.408 478.824 486.322 478.91 486.15C480.63 483.742 482.737 482.538 485.231 482.538C487.811 482.538 489.101 483.054 489.101 484.086C489.101 487.354 489.703 489.891 490.907 491.697C492.197 493.417 493.96 494.277 496.196 494.277C498.518 494.277 500.711 492.729 502.775 489.633C504.925 486.537 506 482.409 506 477.249C506 475.529 505.656 473.465 504.968 471.057C503.592 466.241 501.012 463.016 497.228 461.382C494.476 460.264 490.004 459.705 483.812 459.705C483.124 459.705 482.78 459.232 482.78 458.286C482.78 453.47 483.64 450.976 485.36 450.804C487.682 450.804 490.133 450.202 492.713 448.998C497.873 446.59 500.453 441.645 500.453 434.163C500.453 426.079 495.809 422.037 486.521 422.037L482.522 422.295C480.974 422.639 480.114 423.284 479.942 424.23V424.617C478.996 428.057 478.523 435.668 478.523 447.45ZM459.56 507.306L459.818 505.887C460.678 504.339 461.409 498.061 462.011 487.053C462.613 475.959 462.914 465.639 462.914 456.093C462.914 446.461 462.699 438.764 462.269 433.002C461.925 427.154 460.893 422.94 459.173 420.36C458.829 419.93 458.657 419.414 458.657 418.812C458.657 418.21 459.173 417.694 460.205 417.264C467.257 414.512 476.846 413.136 488.972 413.136C491.982 413.136 495.25 413.566 498.776 414.426C502.302 415.2 505.183 416.189 507.419 417.393C509.741 418.597 511.805 420.446 513.611 422.94C515.503 425.434 516.578 428.401 516.836 431.841C516.836 444.311 511.676 451.492 501.356 453.384C500.84 453.556 500.582 453.771 500.582 454.029C500.582 454.201 500.797 454.416 501.227 454.674C506.559 455.534 511.031 457.684 514.643 461.124C516.449 462.758 518.083 465.295 519.545 468.735C521.007 472.175 521.738 476.131 521.738 480.603C521.738 486.365 520.061 491.826 516.707 496.986C513.955 501.2 509.956 504.21 504.71 506.016C501.786 507.048 498.518 507.564 494.906 507.564C485.876 507.564 480.157 504.683 477.749 498.921C477.663 498.663 477.534 498.534 477.362 498.534L476.846 499.05C475.04 505.07 469.88 508.209 461.366 508.467C460.162 508.467 459.56 508.08 459.56 507.306Z" fill="white"/>
</svg>
