<svg width="685" height="1031" viewBox="0 0 685 1031" fill="none" xmlns="http://www.w3.org/2000/svg">
<rect width="685" height="1030" transform="translate(0 0.466766)" fill="url(#paint0_linear_1_2)"/>
<path d="M71.2936 451.449C71.6376 451.449 72.2826 451.793 73.2286 452.481C74.1746 453.169 75.1636 453.513 76.1956 453.513H76.3246C79.2486 453.513 81.5706 452.352 83.2906 450.03C85.0106 447.708 85.9566 445.386 86.1286 443.064L86.5156 439.581C86.5156 436.313 85.9996 433.518 84.9676 431.196C84.0216 428.788 82.9036 427.025 81.6136 425.907C80.3236 424.703 78.8186 423.8 77.0986 423.198C74.9486 422.338 72.6696 421.908 70.2616 421.908C67.9396 421.908 66.0476 422.166 64.5856 422.682C63.1236 423.112 62.3066 423.542 62.1346 423.972L62.0056 424.746C61.2316 436.356 60.8446 446.762 60.8446 455.964C60.8446 465.08 60.9736 472.949 61.2316 479.571C61.5756 486.193 61.8766 491.31 62.1346 494.922C62.4786 498.448 62.6506 500.383 62.6506 500.727C62.6506 502.877 60.7586 504.597 56.9746 505.887C53.1906 507.177 49.4496 507.822 45.7516 507.822C44.0316 507.822 43.1716 507.392 43.1716 506.532C43.1716 506.274 43.3006 505.672 43.5586 504.726C45.1926 500.942 46.0096 483.355 46.0096 451.965C46.0096 433.475 44.7626 422.897 42.2686 420.231C41.7526 419.715 41.4946 419.199 41.4946 418.683C41.4946 418.081 42.0966 417.436 43.3006 416.748C44.5906 416.06 48.1166 415.286 53.8786 414.426C59.6406 413.48 65.7466 413.007 72.1966 413.007C82.3446 413.007 89.9556 415.759 95.0296 421.263C100.19 426.767 102.77 433.346 102.77 441C102.77 448.568 100.663 455.147 96.4486 460.737C92.3206 466.327 86.9026 469.122 80.1946 469.122C78.0446 469.122 75.8946 468.735 73.7446 467.961C69.4446 466.413 67.2946 463.188 67.2946 458.286C67.2946 457.254 67.6386 455.878 68.3266 454.158C69.0146 452.352 70.0036 451.449 71.2936 451.449ZM139.679 422.682C136.583 422.682 134.003 423.8 131.939 426.036C128.327 429.992 126.521 435.023 126.521 441.129C126.521 447.149 128.069 450.761 131.165 451.965C131.939 452.223 132.326 452.782 132.326 453.642C132.326 456.222 131.466 458.415 129.746 460.221C128.026 461.941 125.919 462.973 123.425 463.317C122.651 463.317 122.264 463.618 122.264 464.22C122.178 465.166 122.135 466.542 122.135 468.348C122.135 470.068 122.221 472.003 122.393 474.153C122.565 476.217 122.952 478.711 123.554 481.635C124.242 484.473 125.102 486.967 126.134 489.117C127.252 491.181 128.8 492.987 130.778 494.535C132.842 495.997 135.465 496.728 138.647 496.728C141.915 496.728 144.839 495.438 147.419 492.858C149.999 490.278 151.805 486.924 152.837 482.796C154.729 475.572 155.675 468.649 155.675 462.027C155.675 455.319 155.245 449.428 154.385 444.354C153.525 439.28 152.493 435.41 151.289 432.744C150.171 430.078 148.795 427.928 147.161 426.294C145.527 424.66 144.151 423.671 143.033 423.327C141.915 422.897 140.797 422.682 139.679 422.682ZM116.201 435.453L116.717 434.679C117.577 430.723 118.953 427.326 120.845 424.488C122.823 421.564 124.758 419.414 126.65 418.038C128.628 416.576 130.821 415.458 133.229 414.684C136.411 413.652 139.206 413.136 141.614 413.136C147.376 413.136 152.321 414.469 156.449 417.135C160.663 419.801 163.845 423.413 165.995 427.971C169.951 436.657 171.929 446.504 171.929 457.512C171.929 476.002 167.629 489.461 159.029 497.889C154.815 502.017 150.171 504.812 145.097 506.274C141.915 507.22 138.862 507.693 135.938 507.693C125.188 507.693 117.276 504.038 112.202 496.728C107.128 489.332 104.591 480.001 104.591 468.735C104.591 462.199 105.15 456.222 106.268 450.804C107.386 445.3 108.547 441.43 109.751 439.194L111.428 435.84C111.772 435.066 112.331 434.679 113.105 434.679C113.879 434.679 114.438 434.765 114.782 434.937C115.212 435.023 115.513 435.152 115.685 435.324C115.943 435.41 116.115 435.453 116.201 435.453ZM221.403 456.609C220.457 456.867 219.984 457.168 219.984 457.512C219.984 457.77 221.016 458.286 223.08 459.06C225.144 459.834 227.079 461.038 228.885 462.672C230.777 464.306 232.11 466.284 232.884 468.606C234.088 472.132 234.69 475.916 234.69 479.958C234.69 484 234.991 487.354 235.593 490.02C236.195 492.6 236.926 494.578 237.786 495.954C239.506 498.878 241.097 500.684 242.559 501.372L243.462 501.888C243.978 502.232 244.236 502.662 244.236 503.178C244.236 504.468 242.129 505.586 237.915 506.532C233.701 507.564 230.433 508.08 228.111 508.08C223.553 508.08 220.629 506.274 219.339 502.662C218.135 498.964 217.533 492.686 217.533 483.828V476.733C217.533 469.251 215.297 464.478 210.825 462.414C209.105 461.64 207.041 461.253 204.633 461.253H204.504C203.73 461.253 203.343 460.522 203.343 459.06C203.343 457.512 203.773 455.964 204.633 454.416C205.579 452.868 206.396 452.094 207.084 452.094C209.922 452.094 212.373 451.578 214.437 450.546C216.501 449.428 218.006 448.095 218.952 446.547C220.93 443.279 222.005 440.484 222.177 438.162V436.485C222.177 433.303 221.661 430.637 220.629 428.487C219.597 426.251 218.307 424.703 216.759 423.843C214.179 422.467 211.556 421.779 208.89 421.779C206.224 421.779 204.031 421.994 202.311 422.424C199.903 423.112 198.699 423.843 198.699 424.617C197.925 435.883 197.538 446.762 197.538 457.254C197.538 467.66 197.667 475.658 197.925 481.248C198.269 486.752 198.57 491.224 198.828 494.664C199.172 498.018 199.344 499.996 199.344 500.598C199.344 501.716 199.043 502.49 198.441 502.92C194.915 506.188 189.368 507.822 181.8 507.822C180.51 507.822 179.865 507.392 179.865 506.532C179.865 506.274 179.994 505.672 180.252 504.726C181.112 502.748 181.714 496.47 182.058 485.892C182.488 475.314 182.703 465.682 182.703 456.996C182.703 448.224 182.531 441.129 182.187 435.711C181.671 427.541 180.811 422.639 179.607 421.005C178.661 419.801 178.188 418.984 178.188 418.554C178.188 418.038 178.661 417.522 179.607 417.006C185.111 414.426 195.087 413.136 209.535 413.136C221.145 413.136 229.831 416.404 235.593 422.94C238.689 426.552 240.237 431.067 240.237 436.485C240.237 439.753 239.592 442.677 238.302 445.257C237.012 447.837 235.421 449.815 233.529 451.191C229.917 453.943 226.52 455.62 223.338 456.222L221.403 456.609ZM256.533 413.652L275.109 414.684C283.365 414.684 289.299 413.695 292.911 411.717C293.427 411.373 293.857 411.201 294.201 411.201C294.631 411.201 294.846 411.803 294.846 413.007C294.846 414.211 294.115 416.189 292.653 418.941C290.503 423.155 287.407 425.262 283.365 425.262L276.27 425.133C275.582 425.133 275.152 425.52 274.98 426.294C274.378 438.936 274.077 452.61 274.077 467.316C274.077 481.936 274.679 492.944 275.883 500.34V500.985C275.883 503.135 273.819 504.855 269.691 506.145C265.649 507.435 261.822 508.08 258.21 508.08C256.49 508.08 255.63 507.607 255.63 506.661C255.63 506.403 255.759 505.801 256.017 504.855C256.963 502.963 257.78 493.804 258.468 477.378C259.242 460.952 259.629 448.568 259.629 440.226L259.371 426.165C259.371 425.649 259.113 425.348 258.597 425.262C256.791 424.918 254.727 424.746 252.405 424.746C247.761 424.746 244.321 425.692 242.085 427.584C241.483 428.014 240.924 428.229 240.408 428.229C239.806 428.229 239.505 427.885 239.505 427.197C239.505 426.165 240.064 424.746 241.182 422.94C242.214 421.134 243.332 419.586 244.536 418.296C247.46 415.2 251.459 413.652 256.533 413.652ZM325.494 422.682C322.398 422.682 319.818 423.8 317.754 426.036C314.142 429.992 312.336 435.023 312.336 441.129C312.336 447.149 313.884 450.761 316.98 451.965C317.754 452.223 318.141 452.782 318.141 453.642C318.141 456.222 317.281 458.415 315.561 460.221C313.841 461.941 311.734 462.973 309.24 463.317C308.466 463.317 308.079 463.618 308.079 464.22C307.993 465.166 307.95 466.542 307.95 468.348C307.95 470.068 308.036 472.003 308.208 474.153C308.38 476.217 308.767 478.711 309.369 481.635C310.057 484.473 310.917 486.967 311.949 489.117C313.067 491.181 314.615 492.987 316.593 494.535C318.657 495.997 321.28 496.728 324.462 496.728C327.73 496.728 330.654 495.438 333.234 492.858C335.814 490.278 337.62 486.924 338.652 482.796C340.544 475.572 341.49 468.649 341.49 462.027C341.49 455.319 341.06 449.428 340.2 444.354C339.34 439.28 338.308 435.41 337.104 432.744C335.986 430.078 334.61 427.928 332.976 426.294C331.342 424.66 329.966 423.671 328.848 423.327C327.73 422.897 326.612 422.682 325.494 422.682ZM302.016 435.453L302.532 434.679C303.392 430.723 304.768 427.326 306.66 424.488C308.638 421.564 310.573 419.414 312.465 418.038C314.443 416.576 316.636 415.458 319.044 414.684C322.226 413.652 325.021 413.136 327.429 413.136C333.191 413.136 338.136 414.469 342.264 417.135C346.478 419.801 349.66 423.413 351.81 427.971C355.766 436.657 357.744 446.504 357.744 457.512C357.744 476.002 353.444 489.461 344.844 497.889C340.63 502.017 335.986 504.812 330.912 506.274C327.73 507.22 324.677 507.693 321.753 507.693C311.003 507.693 303.091 504.038 298.017 496.728C292.943 489.332 290.406 480.001 290.406 468.735C290.406 462.199 290.965 456.222 292.083 450.804C293.201 445.3 294.362 441.43 295.566 439.194L297.243 435.84C297.587 435.066 298.146 434.679 298.92 434.679C299.694 434.679 300.253 434.765 300.597 434.937C301.027 435.023 301.328 435.152 301.5 435.324C301.758 435.41 301.93 435.453 302.016 435.453ZM369.551 482.28L370.325 459.447H361.682C360.994 459.447 360.65 459.189 360.65 458.673C360.65 457.125 361.381 455.362 362.843 453.384C364.305 451.32 365.896 450.288 367.616 450.288H370.325C370.153 443.58 369.981 438.764 369.809 435.84C369.465 430.594 368.605 426.552 367.229 423.714L366.584 422.424C366.24 421.994 366.068 421.478 366.068 420.876C366.068 420.274 366.541 419.758 367.487 419.328C368.433 418.898 369.809 418.382 371.615 417.78C373.507 417.178 377.463 416.404 383.483 415.458C389.503 414.426 396.039 413.91 403.091 413.91C410.229 413.91 414.099 414.426 414.701 415.458C415.389 416.49 415.733 418.124 415.733 420.36C415.733 422.51 415.432 423.585 414.83 423.585C414.744 423.585 414.443 423.542 413.927 423.456C412.551 423.112 410.444 422.94 407.606 422.94C404.768 422.94 401.715 423.198 398.447 423.714C395.179 424.23 392.685 424.746 390.965 425.262L388.514 426.165C387.826 426.337 387.31 426.939 386.966 427.971C386.278 433.045 385.934 440.484 385.934 450.288H406.832C407.606 450.288 407.993 450.546 407.993 451.062C407.993 452.61 407.305 454.416 405.929 456.48C404.553 458.544 403.005 459.576 401.285 459.576L385.934 459.447L386.837 498.147C386.837 500.039 386.536 501.415 385.934 502.275C384.3 504.425 381.505 506.016 377.549 507.048C373.679 508.166 370.454 508.725 367.874 508.725C367.186 508.725 366.842 508.295 366.842 507.435C366.842 507.005 366.885 506.661 366.971 506.403C368.003 504.941 368.863 496.9 369.551 482.28ZM450.463 422.682C447.367 422.682 444.787 423.8 442.723 426.036C439.111 429.992 437.305 435.023 437.305 441.129C437.305 447.149 438.853 450.761 441.949 451.965C442.723 452.223 443.11 452.782 443.11 453.642C443.11 456.222 442.25 458.415 440.53 460.221C438.81 461.941 436.703 462.973 434.209 463.317C433.435 463.317 433.048 463.618 433.048 464.22C432.962 465.166 432.919 466.542 432.919 468.348C432.919 470.068 433.005 472.003 433.177 474.153C433.349 476.217 433.736 478.711 434.338 481.635C435.026 484.473 435.886 486.967 436.918 489.117C438.036 491.181 439.584 492.987 441.562 494.535C443.626 495.997 446.249 496.728 449.431 496.728C452.699 496.728 455.623 495.438 458.203 492.858C460.783 490.278 462.589 486.924 463.621 482.796C465.513 475.572 466.459 468.649 466.459 462.027C466.459 455.319 466.029 449.428 465.169 444.354C464.309 439.28 463.277 435.41 462.073 432.744C460.955 430.078 459.579 427.928 457.945 426.294C456.311 424.66 454.935 423.671 453.817 423.327C452.699 422.897 451.581 422.682 450.463 422.682ZM426.985 435.453L427.501 434.679C428.361 430.723 429.737 427.326 431.629 424.488C433.607 421.564 435.542 419.414 437.434 418.038C439.412 416.576 441.605 415.458 444.013 414.684C447.195 413.652 449.99 413.136 452.398 413.136C458.16 413.136 463.105 414.469 467.233 417.135C471.447 419.801 474.629 423.413 476.779 427.971C480.735 436.657 482.713 446.504 482.713 457.512C482.713 476.002 478.413 489.461 469.813 497.889C465.599 502.017 460.955 504.812 455.881 506.274C452.699 507.22 449.646 507.693 446.722 507.693C435.972 507.693 428.06 504.038 422.986 496.728C417.912 489.332 415.375 480.001 415.375 468.735C415.375 462.199 415.934 456.222 417.052 450.804C418.17 445.3 419.331 441.43 420.535 439.194L422.212 435.84C422.556 435.066 423.115 434.679 423.889 434.679C424.663 434.679 425.222 434.765 425.566 434.937C425.996 435.023 426.297 435.152 426.469 435.324C426.727 435.41 426.899 435.453 426.985 435.453ZM524.963 505.371L517.61 505.242C516.578 505.242 515.546 505.242 514.514 505.242L491.036 506.403C489.746 506.403 489.101 505.973 489.101 505.113C489.101 504.855 489.23 504.253 489.488 503.307C490.348 501.329 490.95 495.051 491.294 484.473C491.724 473.895 491.939 464.263 491.939 455.577C491.939 446.805 491.767 439.71 491.423 434.292C490.907 426.122 490.047 421.22 488.843 419.586C487.897 418.382 487.424 417.608 487.424 417.264C487.424 415.888 489.746 414.684 494.39 413.652C499.034 412.62 502.345 412.104 504.323 412.104C506.387 412.104 507.677 412.233 508.193 412.491C508.709 412.663 508.967 413.093 508.967 413.781C508.967 414.469 508.795 416.662 508.451 420.36C507.591 431.282 507.161 444.01 507.161 458.544C507.161 472.992 507.505 484.559 508.193 493.245C508.193 494.191 509.01 495.008 510.644 495.696C512.278 496.384 514.299 496.728 516.707 496.728C525.135 496.728 529.349 490.235 529.349 477.249C529.349 473.637 529.134 471.401 528.704 470.541C528.36 469.681 528.188 469.122 528.188 468.864C528.188 468.004 528.79 467.574 529.994 467.574C530.94 467.574 532.187 468.047 533.735 468.993C535.369 469.939 536.702 471.143 537.734 472.605C538.766 473.981 539.712 476.217 540.572 479.313C541.432 482.323 541.862 485.892 541.862 490.02C541.862 500.254 540.615 505.371 538.121 505.371C533.735 505.371 529.349 505.371 524.963 505.371ZM567.313 448.353C567.313 475.013 567.915 492.471 569.119 500.727C569.119 502.791 567.141 504.468 563.185 505.758C559.229 507.134 555.961 507.822 553.381 507.822C550.801 507.822 549.511 507.435 549.511 506.661C549.511 506.145 549.64 505.5 549.898 504.726C551.532 501.114 552.349 486.58 552.349 461.124C552.349 437.044 551.317 423.671 549.253 421.005L548.737 420.231C548.221 419.801 547.963 419.285 547.963 418.683C547.963 417.995 548.436 417.436 549.382 417.006C550.672 416.232 552.951 415.458 556.219 414.684C559.573 413.91 562.583 413.523 565.249 413.523C567.915 413.523 569.248 414.125 569.248 415.329V415.716C568.216 424.66 567.571 435.539 567.313 448.353ZM612.091 422.682C608.995 422.682 606.415 423.8 604.351 426.036C600.739 429.992 598.933 435.023 598.933 441.129C598.933 447.149 600.481 450.761 603.577 451.965C604.351 452.223 604.738 452.782 604.738 453.642C604.738 456.222 603.878 458.415 602.158 460.221C600.438 461.941 598.331 462.973 595.837 463.317C595.063 463.317 594.676 463.618 594.676 464.22C594.59 465.166 594.547 466.542 594.547 468.348C594.547 470.068 594.633 472.003 594.805 474.153C594.977 476.217 595.364 478.711 595.966 481.635C596.654 484.473 597.514 486.967 598.546 489.117C599.664 491.181 601.212 492.987 603.19 494.535C605.254 495.997 607.877 496.728 611.059 496.728C614.327 496.728 617.251 495.438 619.831 492.858C622.411 490.278 624.217 486.924 625.249 482.796C627.141 475.572 628.087 468.649 628.087 462.027C628.087 455.319 627.657 449.428 626.797 444.354C625.937 439.28 624.905 435.41 623.701 432.744C622.583 430.078 621.207 427.928 619.573 426.294C617.939 424.66 616.563 423.671 615.445 423.327C614.327 422.897 613.209 422.682 612.091 422.682ZM588.613 435.453L589.129 434.679C589.989 430.723 591.365 427.326 593.257 424.488C595.235 421.564 597.17 419.414 599.062 418.038C601.04 416.576 603.233 415.458 605.641 414.684C608.823 413.652 611.618 413.136 614.026 413.136C619.788 413.136 624.733 414.469 628.861 417.135C633.075 419.801 636.257 423.413 638.407 427.971C642.363 436.657 644.341 446.504 644.341 457.512C644.341 476.002 640.041 489.461 631.441 497.889C627.227 502.017 622.583 504.812 617.509 506.274C614.327 507.22 611.274 507.693 608.35 507.693C597.6 507.693 589.688 504.038 584.614 496.728C579.54 489.332 577.003 480.001 577.003 468.735C577.003 462.199 577.562 456.222 578.68 450.804C579.798 445.3 580.959 441.43 582.163 439.194L583.84 435.84C584.184 435.066 584.743 434.679 585.517 434.679C586.291 434.679 586.85 434.765 587.194 434.937C587.624 435.023 587.925 435.152 588.097 435.324C588.355 435.41 588.527 435.453 588.613 435.453Z" fill="white"/>
<defs>
<linearGradient id="paint0_linear_1_2" x1="342.5" y1="0" x2="342.5" y2="1030" gradientUnits="userSpaceOnUse">
<stop offset="0.192308" stop-color="#423E96"/>
<stop offset="0.471154" stop-color="#0E0C35" stop-opacity="0.7"/>
</linearGradient>
</defs>
</svg>
