<svg width="685" height="1030" viewBox="0 0 685 1030" fill="none" xmlns="http://www.w3.org/2000/svg">
<rect width="685" height="1030" fill="url(#paint0_linear_1_2)"/>
<path d="M105.568 456.142C104.622 456.4 104.149 456.701 104.149 457.045C104.149 457.303 105.181 457.819 107.245 458.593C109.309 459.367 111.244 460.571 113.05 462.205C114.942 463.839 116.275 465.817 117.049 468.139C118.253 471.665 118.855 475.449 118.855 479.491C118.855 483.533 119.156 486.887 119.758 489.553C120.36 492.133 121.091 494.111 121.951 495.487C123.671 498.411 125.262 500.217 126.724 500.905L127.627 501.421C128.143 501.765 128.401 502.195 128.401 502.711C128.401 504.001 126.294 505.119 122.08 506.065C117.866 507.097 114.598 507.613 112.276 507.613C107.718 507.613 104.794 505.807 103.504 502.195C102.3 498.497 101.698 492.219 101.698 483.361V476.266C101.698 468.784 99.4618 464.011 94.9898 461.947C93.2698 461.173 91.2058 460.786 88.7978 460.786H88.6688C87.8948 460.786 87.5078 460.055 87.5078 458.593C87.5078 457.045 87.9378 455.497 88.7978 453.949C89.7438 452.401 90.5608 451.627 91.2488 451.627C94.0868 451.627 96.5378 451.111 98.6018 450.079C100.666 448.961 102.171 447.628 103.117 446.08C105.095 442.812 106.17 440.017 106.342 437.695V436.018C106.342 432.836 105.826 430.17 104.794 428.02C103.762 425.784 102.472 424.236 100.924 423.376C98.3438 422 95.7208 421.312 93.0548 421.312C90.3888 421.312 88.1958 421.527 86.4758 421.957C84.0678 422.645 82.8638 423.376 82.8638 424.15C82.0898 435.416 81.7028 446.295 81.7028 456.787C81.7028 467.193 81.8318 475.191 82.0898 480.781C82.4338 486.285 82.7348 490.757 82.9928 494.197C83.3368 497.551 83.5088 499.529 83.5088 500.131C83.5088 501.249 83.2078 502.023 82.6058 502.453C79.0798 505.721 73.5328 507.355 65.9648 507.355C64.6748 507.355 64.0298 506.925 64.0298 506.065C64.0298 505.807 64.1588 505.205 64.4168 504.259C65.2768 502.281 65.8788 496.003 66.2228 485.425C66.6528 474.847 66.8678 465.215 66.8678 456.529C66.8678 447.757 66.6958 440.662 66.3518 435.244C65.8358 427.074 64.9758 422.172 63.7718 420.538C62.8258 419.334 62.3528 418.517 62.3528 418.087C62.3528 417.571 62.8258 417.055 63.7718 416.539C69.2758 413.959 79.2518 412.669 93.6998 412.669C105.31 412.669 113.996 415.937 119.758 422.473C122.854 426.085 124.402 430.6 124.402 436.018C124.402 439.286 123.757 442.21 122.467 444.79C121.177 447.37 119.586 449.348 117.694 450.724C114.082 453.476 110.685 455.153 107.503 455.755L105.568 456.142ZM186.621 489.037C186.621 495.057 184.686 499.529 180.816 502.453C177.032 505.377 171.7 506.839 164.82 506.839C153.812 506.839 145.685 503.184 140.439 495.874C135.279 488.564 132.699 479.018 132.699 467.236C132.699 465.344 132.785 462.592 132.957 458.98H125.733C125.045 458.98 124.701 458.722 124.701 458.206C124.701 456.744 125.432 454.981 126.894 452.917C128.356 450.853 129.947 449.821 131.667 449.821H134.118C135.236 443.629 137.042 438.168 139.536 433.438C142.116 428.708 144.782 425.053 147.534 422.473C150.372 419.893 153.468 417.829 156.822 416.281C162.154 413.701 167.744 412.411 173.592 412.411C179.44 412.411 183.095 413.357 184.557 415.249C185.245 416.195 185.589 417.958 185.589 420.538C185.589 423.032 185.288 424.279 184.686 424.279C184.6 424.279 184.213 424.107 183.525 423.763C181.289 422.731 178.494 422.215 175.14 422.215C167.83 422.215 162.111 424.795 157.983 429.955C153.941 435.115 151.232 441.737 149.856 449.821C156.392 449.735 165.25 449.692 176.43 449.692C177.29 449.692 177.72 449.993 177.72 450.595C177.72 451.971 177.032 453.734 175.656 455.884C174.28 457.948 172.732 458.98 171.012 458.98H148.824C148.738 460.012 148.695 462.291 148.695 465.817C148.695 469.257 149.297 472.912 150.501 476.782C151.791 480.566 154.113 483.791 157.467 486.457C160.907 489.123 165.336 490.456 170.754 490.456C176.172 490.456 180.73 489.252 184.428 486.844C184.858 486.5 185.245 486.328 185.589 486.328C186.277 486.328 186.621 487.231 186.621 489.037ZM195.334 454.852L194.689 430.471C194.689 426.601 194.259 423.548 193.399 421.312C192.539 419.076 192.109 417.872 192.109 417.7C192.109 415.808 194.99 414.346 200.752 413.314C206.6 412.282 211.029 411.766 214.039 411.766C217.135 411.766 218.812 412.497 219.07 413.959C224.488 438.125 229.046 454.895 232.744 464.269C233.174 465.301 233.604 465.817 234.034 465.817C234.55 465.817 234.98 465.43 235.324 464.656C241.086 448.402 246.16 432.32 250.546 416.41C250.89 415.378 251.75 414.604 253.126 414.088C254.502 413.486 256.867 412.927 260.221 412.411C263.661 411.895 267.058 411.637 270.412 411.637C273.766 411.637 275.443 412.325 275.443 413.701C275.443 413.787 275.314 414.475 275.056 415.765C274.798 416.969 274.54 418.474 274.282 420.28C274.024 422.086 273.723 424.279 273.379 426.859C272.605 432.793 272.089 439.63 271.831 447.37C271.659 455.024 271.573 462.721 271.573 470.461L271.831 484.006C271.831 490.198 272.218 494.627 272.992 497.293C273.852 499.873 274.282 501.378 274.282 501.808C274.282 502.152 273.981 502.582 273.379 503.098C270.713 505.248 266.671 506.323 261.253 506.323C257.813 506.323 255.878 505.162 255.448 502.84C255.19 501.636 255.061 499.744 255.061 497.164C255.061 494.498 255.319 486.414 255.835 472.912C256.351 459.41 256.609 449.606 256.609 443.5C256.609 437.308 256.265 434.212 255.577 434.212C255.491 434.212 255.448 434.255 255.448 434.341C255.448 434.341 255.319 434.384 255.061 434.47C254.803 434.556 254.115 435.889 252.997 438.469C251.965 441.049 249.858 447.413 246.676 457.561C243.494 467.709 240.613 477.212 238.033 486.07C235.453 494.842 234.034 499.572 233.776 500.26C232.83 502.582 231.024 503.743 228.358 503.743C227.068 503.743 226.036 503.27 225.262 502.324C222.51 489.596 217.608 471.407 210.556 447.757L206.944 436.018C206.772 435.588 206.6 435.373 206.428 435.373C205.998 435.373 205.697 435.674 205.525 436.276C205.181 441.866 205.009 452.874 205.009 469.3C205.009 485.64 205.611 495.96 206.815 500.26C206.901 500.432 206.944 500.69 206.944 501.034C206.944 502.84 205.525 504.173 202.687 505.033C199.849 505.807 197.269 506.194 194.947 506.194C192.711 506.194 191.593 505.678 191.593 504.646C191.593 504.56 191.808 503.872 192.238 502.582C193.528 498.196 194.345 491.832 194.689 483.49C195.119 475.148 195.334 465.602 195.334 454.852ZM337.919 489.037C337.919 495.057 335.984 499.529 332.114 502.453C328.33 505.377 322.998 506.839 316.118 506.839C305.11 506.839 296.983 503.184 291.737 495.874C286.577 488.564 283.997 479.018 283.997 467.236C283.997 465.344 284.083 462.592 284.255 458.98H277.031C276.343 458.98 275.999 458.722 275.999 458.206C275.999 456.744 276.73 454.981 278.192 452.917C279.654 450.853 281.245 449.821 282.965 449.821H285.416C286.534 443.629 288.34 438.168 290.834 433.438C293.414 428.708 296.08 425.053 298.832 422.473C301.67 419.893 304.766 417.829 308.12 416.281C313.452 413.701 319.042 412.411 324.89 412.411C330.738 412.411 334.393 413.357 335.855 415.249C336.543 416.195 336.887 417.958 336.887 420.538C336.887 423.032 336.586 424.279 335.984 424.279C335.898 424.279 335.511 424.107 334.823 423.763C332.587 422.731 329.792 422.215 326.438 422.215C319.128 422.215 313.409 424.795 309.281 429.955C305.239 435.115 302.53 441.737 301.154 449.821C307.69 449.735 316.548 449.692 327.728 449.692C328.588 449.692 329.018 449.993 329.018 450.595C329.018 451.971 328.33 453.734 326.954 455.884C325.578 457.948 324.03 458.98 322.31 458.98H300.122C300.036 460.012 299.993 462.291 299.993 465.817C299.993 469.257 300.595 472.912 301.799 476.782C303.089 480.566 305.411 483.791 308.765 486.457C312.205 489.123 316.634 490.456 322.052 490.456C327.47 490.456 332.028 489.252 335.726 486.844C336.156 486.5 336.543 486.328 336.887 486.328C337.575 486.328 337.919 487.231 337.919 489.037ZM346.632 454.852L345.987 430.471C345.987 426.601 345.557 423.548 344.697 421.312C343.837 419.076 343.407 417.872 343.407 417.7C343.407 415.808 346.288 414.346 352.05 413.314C357.898 412.282 362.327 411.766 365.337 411.766C368.433 411.766 370.11 412.497 370.368 413.959C375.786 438.125 380.344 454.895 384.042 464.269C384.472 465.301 384.902 465.817 385.332 465.817C385.848 465.817 386.278 465.43 386.622 464.656C392.384 448.402 397.458 432.32 401.844 416.41C402.188 415.378 403.048 414.604 404.424 414.088C405.8 413.486 408.165 412.927 411.519 412.411C414.959 411.895 418.356 411.637 421.71 411.637C425.064 411.637 426.741 412.325 426.741 413.701C426.741 413.787 426.612 414.475 426.354 415.765C426.096 416.969 425.838 418.474 425.58 420.28C425.322 422.086 425.021 424.279 424.677 426.859C423.903 432.793 423.387 439.63 423.129 447.37C422.957 455.024 422.871 462.721 422.871 470.461L423.129 484.006C423.129 490.198 423.516 494.627 424.29 497.293C425.15 499.873 425.58 501.378 425.58 501.808C425.58 502.152 425.279 502.582 424.677 503.098C422.011 505.248 417.969 506.323 412.551 506.323C409.111 506.323 407.176 505.162 406.746 502.84C406.488 501.636 406.359 499.744 406.359 497.164C406.359 494.498 406.617 486.414 407.133 472.912C407.649 459.41 407.907 449.606 407.907 443.5C407.907 437.308 407.563 434.212 406.875 434.212C406.789 434.212 406.746 434.255 406.746 434.341C406.746 434.341 406.617 434.384 406.359 434.47C406.101 434.556 405.413 435.889 404.295 438.469C403.263 441.049 401.156 447.413 397.974 457.561C394.792 467.709 391.911 477.212 389.331 486.07C386.751 494.842 385.332 499.572 385.074 500.26C384.128 502.582 382.322 503.743 379.656 503.743C378.366 503.743 377.334 503.27 376.56 502.324C373.808 489.596 368.906 471.407 361.854 447.757L358.242 436.018C358.07 435.588 357.898 435.373 357.726 435.373C357.296 435.373 356.995 435.674 356.823 436.276C356.479 441.866 356.307 452.874 356.307 469.3C356.307 485.64 356.909 495.96 358.113 500.26C358.199 500.432 358.242 500.69 358.242 501.034C358.242 502.84 356.823 504.173 353.985 505.033C351.147 505.807 348.567 506.194 346.245 506.194C344.009 506.194 342.891 505.678 342.891 504.646C342.891 504.56 343.106 503.872 343.536 502.582C344.826 498.196 345.643 491.832 345.987 483.49C346.417 475.148 346.632 465.602 346.632 454.852ZM452.194 446.983L452.323 463.108L451.807 485.425C451.893 485.769 452.022 485.941 452.194 485.941C452.366 485.941 452.495 485.855 452.581 485.683C454.301 483.275 456.408 482.071 458.902 482.071C461.482 482.071 462.772 482.587 462.772 483.619C462.772 486.887 463.374 489.424 464.578 491.23C465.868 492.95 467.631 493.81 469.867 493.81C472.189 493.81 474.382 492.262 476.446 489.166C478.596 486.07 479.671 481.942 479.671 476.782C479.671 475.062 479.327 472.998 478.639 470.59C477.263 465.774 474.683 462.549 470.899 460.915C468.147 459.797 463.675 459.238 457.483 459.238C456.795 459.238 456.451 458.765 456.451 457.819C456.451 453.003 457.311 450.509 459.031 450.337C461.353 450.337 463.804 449.735 466.384 448.531C471.544 446.123 474.124 441.178 474.124 433.696C474.124 425.612 469.48 421.57 460.192 421.57L456.193 421.828C454.645 422.172 453.785 422.817 453.613 423.763V424.15C452.667 427.59 452.194 435.201 452.194 446.983ZM433.231 506.839L433.489 505.42C434.349 503.872 435.08 497.594 435.682 486.586C436.284 475.492 436.585 465.172 436.585 455.626C436.585 445.994 436.37 438.297 435.94 432.535C435.596 426.687 434.564 422.473 432.844 419.893C432.5 419.463 432.328 418.947 432.328 418.345C432.328 417.743 432.844 417.227 433.876 416.797C440.928 414.045 450.517 412.669 462.643 412.669C465.653 412.669 468.921 413.099 472.447 413.959C475.973 414.733 478.854 415.722 481.09 416.926C483.412 418.13 485.476 419.979 487.282 422.473C489.174 424.967 490.249 427.934 490.507 431.374C490.507 443.844 485.347 451.025 475.027 452.917C474.511 453.089 474.253 453.304 474.253 453.562C474.253 453.734 474.468 453.949 474.898 454.207C480.23 455.067 484.702 457.217 488.314 460.657C490.12 462.291 491.754 464.828 493.216 468.268C494.678 471.708 495.409 475.664 495.409 480.136C495.409 485.898 493.732 491.359 490.378 496.519C487.626 500.733 483.627 503.743 478.381 505.549C475.457 506.581 472.189 507.097 468.577 507.097C459.547 507.097 453.828 504.216 451.42 498.454C451.334 498.196 451.205 498.067 451.033 498.067L450.517 498.583C448.711 504.603 443.551 507.742 435.037 508C433.833 508 433.231 507.613 433.231 506.839ZM556.488 489.037C556.488 495.057 554.553 499.529 550.683 502.453C546.899 505.377 541.567 506.839 534.687 506.839C523.679 506.839 515.552 503.184 510.306 495.874C505.146 488.564 502.566 479.018 502.566 467.236C502.566 465.344 502.652 462.592 502.824 458.98H495.6C494.912 458.98 494.568 458.722 494.568 458.206C494.568 456.744 495.299 454.981 496.761 452.917C498.223 450.853 499.814 449.821 501.534 449.821H503.985C505.103 443.629 506.909 438.168 509.403 433.438C511.983 428.708 514.649 425.053 517.401 422.473C520.239 419.893 523.335 417.829 526.689 416.281C532.021 413.701 537.611 412.411 543.459 412.411C549.307 412.411 552.962 413.357 554.424 415.249C555.112 416.195 555.456 417.958 555.456 420.538C555.456 423.032 555.155 424.279 554.553 424.279C554.467 424.279 554.08 424.107 553.392 423.763C551.156 422.731 548.361 422.215 545.007 422.215C537.697 422.215 531.978 424.795 527.85 429.955C523.808 435.115 521.099 441.737 519.723 449.821C526.259 449.735 535.117 449.692 546.297 449.692C547.157 449.692 547.587 449.993 547.587 450.595C547.587 451.971 546.899 453.734 545.523 455.884C544.147 457.948 542.599 458.98 540.879 458.98H518.691C518.605 460.012 518.562 462.291 518.562 465.817C518.562 469.257 519.164 472.912 520.368 476.782C521.658 480.566 523.98 483.791 527.334 486.457C530.774 489.123 535.203 490.456 540.621 490.456C546.039 490.456 550.597 489.252 554.295 486.844C554.725 486.5 555.112 486.328 555.456 486.328C556.144 486.328 556.488 487.231 556.488 489.037ZM605.191 456.142C604.245 456.4 603.772 456.701 603.772 457.045C603.772 457.303 604.804 457.819 606.868 458.593C608.932 459.367 610.867 460.571 612.673 462.205C614.565 463.839 615.898 465.817 616.672 468.139C617.876 471.665 618.478 475.449 618.478 479.491C618.478 483.533 618.779 486.887 619.381 489.553C619.983 492.133 620.714 494.111 621.574 495.487C623.294 498.411 624.885 500.217 626.347 500.905L627.25 501.421C627.766 501.765 628.024 502.195 628.024 502.711C628.024 504.001 625.917 505.119 621.703 506.065C617.489 507.097 614.221 507.613 611.899 507.613C607.341 507.613 604.417 505.807 603.127 502.195C601.923 498.497 601.321 492.219 601.321 483.361V476.266C601.321 468.784 599.085 464.011 594.613 461.947C592.893 461.173 590.829 460.786 588.421 460.786H588.292C587.518 460.786 587.131 460.055 587.131 458.593C587.131 457.045 587.561 455.497 588.421 453.949C589.367 452.401 590.184 451.627 590.872 451.627C593.71 451.627 596.161 451.111 598.225 450.079C600.289 448.961 601.794 447.628 602.74 446.08C604.718 442.812 605.793 440.017 605.965 437.695V436.018C605.965 432.836 605.449 430.17 604.417 428.02C603.385 425.784 602.095 424.236 600.547 423.376C597.967 422 595.344 421.312 592.678 421.312C590.012 421.312 587.819 421.527 586.099 421.957C583.691 422.645 582.487 423.376 582.487 424.15C581.713 435.416 581.326 446.295 581.326 456.787C581.326 467.193 581.455 475.191 581.713 480.781C582.057 486.285 582.358 490.757 582.616 494.197C582.96 497.551 583.132 499.529 583.132 500.131C583.132 501.249 582.831 502.023 582.229 502.453C578.703 505.721 573.156 507.355 565.588 507.355C564.298 507.355 563.653 506.925 563.653 506.065C563.653 505.807 563.782 505.205 564.04 504.259C564.9 502.281 565.502 496.003 565.846 485.425C566.276 474.847 566.491 465.215 566.491 456.529C566.491 447.757 566.319 440.662 565.975 435.244C565.459 427.074 564.599 422.172 563.395 420.538C562.449 419.334 561.976 418.517 561.976 418.087C561.976 417.571 562.449 417.055 563.395 416.539C568.899 413.959 578.875 412.669 593.323 412.669C604.933 412.669 613.619 415.937 619.381 422.473C622.477 426.085 624.025 430.6 624.025 436.018C624.025 439.286 623.38 442.21 622.09 444.79C620.8 447.37 619.209 449.348 617.317 450.724C613.705 453.476 610.308 455.153 607.126 455.755L605.191 456.142Z" fill="#BEC5DD"/>
<defs>
<linearGradient id="paint0_linear_1_2" x1="342.5" y1="0" x2="342.5" y2="1030" gradientUnits="userSpaceOnUse">
<stop stop-color="#D17F41"/>
<stop offset="0.826923" stop-color="#5F2F0A"/>
</linearGradient>
</defs>
</svg>
