<svg width="685" height="1030" viewBox="0 0 685 1030" fill="none" xmlns="http://www.w3.org/2000/svg">
<rect width="685" height="1030" fill="url(#paint0_linear_1_2)"/>
<path d="M210.488 413.185L229.064 414.217C237.32 414.217 243.254 413.228 246.866 411.25C247.382 410.906 247.812 410.734 248.156 410.734C248.586 410.734 248.801 411.336 248.801 412.54C248.801 413.744 248.07 415.722 246.608 418.474C244.458 422.688 241.362 424.795 237.32 424.795L230.225 424.666C229.537 424.666 229.107 425.053 228.935 425.827C228.333 438.469 228.032 452.143 228.032 466.849C228.032 481.469 228.634 492.477 229.838 499.873V500.518C229.838 502.668 227.774 504.388 223.646 505.678C219.604 506.968 215.777 507.613 212.165 507.613C210.445 507.613 209.585 507.14 209.585 506.194C209.585 505.936 209.714 505.334 209.972 504.388C210.918 502.496 211.735 493.337 212.423 476.911C213.197 460.485 213.584 448.101 213.584 439.759L213.326 425.698C213.326 425.182 213.068 424.881 212.552 424.795C210.746 424.451 208.682 424.279 206.36 424.279C201.716 424.279 198.276 425.225 196.04 427.117C195.438 427.547 194.879 427.762 194.363 427.762C193.761 427.762 193.46 427.418 193.46 426.73C193.46 425.698 194.019 424.279 195.137 422.473C196.169 420.667 197.287 419.119 198.491 417.829C201.415 414.733 205.414 413.185 210.488 413.185ZM279.318 431.116C272.524 439.63 267.622 448.144 264.612 456.658H264.741C276.695 456.658 283.532 456.701 285.252 456.787C287.058 456.787 288.047 456.701 288.219 456.529C288.391 456.357 288.52 456.142 288.606 455.884C287.144 445.306 285.983 438.125 285.123 434.341C284.263 430.471 283.403 428.536 282.543 428.536C281.683 428.536 280.608 429.396 279.318 431.116ZM267.837 491.875L270.675 491.359C271.535 491.359 271.965 491.832 271.965 492.778C271.965 495.788 271.363 498.325 270.159 500.389C268.955 502.453 267.45 503.915 265.644 504.775C262.72 506.237 260.226 506.968 258.162 506.968C254.206 506.968 251.239 505.506 249.261 502.582C247.283 499.572 246.294 495.1 246.294 489.166C246.294 483.146 247.928 475.363 251.196 465.817H243.714C242.768 465.817 242.295 465.344 242.295 464.398C242.295 463.452 243.026 461.947 244.488 459.883C245.95 457.733 247.498 456.658 249.132 456.658H254.937C261.043 443.07 268.224 431.331 276.48 421.441C278.63 418.861 281.253 416.453 284.349 414.217C287.531 411.981 289.982 410.863 291.702 410.863C293.422 410.863 294.712 411.637 295.572 413.185C297.808 416.797 300.431 429.998 303.441 452.788C304.473 462.592 306.236 472.74 308.73 483.232C311.31 493.638 313.675 499.701 315.825 501.421C316.341 501.765 316.599 502.195 316.599 502.711C316.599 504.001 314.75 505.205 311.052 506.323C307.44 507.441 304.645 508 302.667 508C300.775 508 299.313 507.742 298.281 507.226C297.249 506.796 296.604 506.323 296.346 505.807C294.798 502.453 293.25 494.455 291.702 481.813L290.928 475.75C290.584 471.708 290.24 468.655 289.896 466.591L288.993 465.946L262.032 465.817C261 470.203 260.484 474.03 260.484 477.298C260.484 480.566 260.57 482.974 260.742 484.522C261 485.984 261.731 487.575 262.935 489.295C264.139 491.015 265.773 491.875 267.837 491.875ZM360.748 433.567L361.264 429.568C361.264 425.612 359.716 423.075 356.62 421.957C354.212 421.183 352.363 420.796 351.073 420.796H350.944C348.364 420.796 346.128 421.226 344.236 422.086C342.344 422.86 340.968 423.849 340.108 425.053C338.302 427.547 337.27 430.17 337.012 432.922C337.012 436.19 338.474 439.028 341.398 441.436C344.322 443.758 347.848 445.822 351.976 447.628C356.19 449.348 360.361 451.24 364.489 453.304C368.703 455.368 372.272 458.335 375.196 462.205C378.12 466.075 379.582 470.719 379.582 476.137C379.582 486.715 376.228 494.627 369.52 499.873C362.898 505.119 355.33 507.742 346.816 507.742C338.388 507.742 331.379 505.85 325.789 502.066C320.285 498.196 317.533 493.036 317.533 486.586V486.457C317.533 483.275 318.006 480.523 318.952 478.201C319.984 475.793 321.188 474.03 322.564 472.912C325.402 470.59 327.982 469.343 330.304 469.171L331.852 469.042C334.26 469.042 336.453 469.644 338.431 470.848C340.409 471.966 341.398 473.557 341.398 475.621C341.398 476.653 340.839 477.513 339.721 478.201C338.603 478.889 337.614 479.921 336.754 481.297C335.98 482.673 335.55 483.834 335.464 484.78L335.206 486.199C335.206 491.445 337.614 494.928 342.43 496.648C344.15 497.25 345.526 497.551 346.558 497.551C351.288 497.551 355.072 496.132 357.91 493.294C360.834 490.456 362.296 486.844 362.296 482.458C362.296 477.212 360.06 472.955 355.588 469.687C352.234 467.279 348.579 465.258 344.623 463.624C340.753 461.99 338.13 460.829 336.754 460.141C335.378 459.453 333.916 458.636 332.368 457.69C330.82 456.744 329.1 455.411 327.208 453.691C323.08 450.079 321.016 445.22 321.016 439.114C321.016 432.922 322.693 427.719 326.047 423.505C332.067 415.851 341.097 412.024 353.137 412.024C359.501 412.024 364.876 413.271 369.262 415.765C373.648 418.173 375.841 421.527 375.841 425.827C375.841 428.923 374.938 431.503 373.132 433.567C371.412 435.631 369.176 436.663 366.424 436.663C365.134 436.663 363.844 436.405 362.554 435.889C361.35 435.373 360.748 434.599 360.748 433.567ZM395.548 413.185L414.124 414.217C422.38 414.217 428.314 413.228 431.926 411.25C432.442 410.906 432.872 410.734 433.216 410.734C433.646 410.734 433.861 411.336 433.861 412.54C433.861 413.744 433.13 415.722 431.668 418.474C429.518 422.688 426.422 424.795 422.38 424.795L415.285 424.666C414.597 424.666 414.167 425.053 413.995 425.827C413.393 438.469 413.092 452.143 413.092 466.849C413.092 481.469 413.694 492.477 414.898 499.873V500.518C414.898 502.668 412.834 504.388 408.706 505.678C404.664 506.968 400.837 507.613 397.225 507.613C395.505 507.613 394.645 507.14 394.645 506.194C394.645 505.936 394.774 505.334 395.032 504.388C395.978 502.496 396.795 493.337 397.483 476.911C398.257 460.485 398.644 448.101 398.644 439.759L398.386 425.698C398.386 425.182 398.128 424.881 397.612 424.795C395.806 424.451 393.742 424.279 391.42 424.279C386.776 424.279 383.336 425.225 381.1 427.117C380.498 427.547 379.939 427.762 379.423 427.762C378.821 427.762 378.52 427.418 378.52 426.73C378.52 425.698 379.079 424.279 380.197 422.473C381.229 420.667 382.347 419.119 383.551 417.829C386.475 414.733 390.474 413.185 395.548 413.185ZM486.697 489.037C486.697 495.057 484.762 499.529 480.892 502.453C477.108 505.377 471.776 506.839 464.896 506.839C453.888 506.839 445.761 503.184 440.515 495.874C435.355 488.564 432.775 479.018 432.775 467.236C432.775 465.344 432.861 462.592 433.033 458.98H425.809C425.121 458.98 424.777 458.722 424.777 458.206C424.777 456.744 425.508 454.981 426.97 452.917C428.432 450.853 430.023 449.821 431.743 449.821H434.194C435.312 443.629 437.118 438.168 439.612 433.438C442.192 428.708 444.858 425.053 447.61 422.473C450.448 419.893 453.544 417.829 456.898 416.281C462.23 413.701 467.82 412.411 473.668 412.411C479.516 412.411 483.171 413.357 484.633 415.249C485.321 416.195 485.665 417.958 485.665 420.538C485.665 423.032 485.364 424.279 484.762 424.279C484.676 424.279 484.289 424.107 483.601 423.763C481.365 422.731 478.57 422.215 475.216 422.215C467.906 422.215 462.187 424.795 458.059 429.955C454.017 435.115 451.308 441.737 449.932 449.821C456.468 449.735 465.326 449.692 476.506 449.692C477.366 449.692 477.796 449.993 477.796 450.595C477.796 451.971 477.108 453.734 475.732 455.884C474.356 457.948 472.808 458.98 471.088 458.98H448.9C448.814 460.012 448.771 462.291 448.771 465.817C448.771 469.257 449.373 472.912 450.577 476.782C451.867 480.566 454.189 483.791 457.543 486.457C460.983 489.123 465.412 490.456 470.83 490.456C476.248 490.456 480.806 489.252 484.504 486.844C484.934 486.5 485.321 486.328 485.665 486.328C486.353 486.328 486.697 487.231 486.697 489.037Z" fill="#DCAFCA"/>
<defs>
<linearGradient id="paint0_linear_1_2" x1="342.5" y1="0" x2="342.5" y2="1030" gradientUnits="userSpaceOnUse">
<stop stop-color="#803838"/>
<stop offset="0.826923" stop-color="#430707"/>
</linearGradient>
</defs>
</svg>
